<svg width="1867" height="201" viewBox="0 0 1867 201" fill="none" xmlns="http://www.w3.org/2000/svg">
<path d="M85.6054 100.532V107.256H106.969C106.059 115.382 101.716 118.254 92.4698 118.254H82.1032C70.4757 118.254 66.9734 114.121 66.9734 101.583C66.9734 89.0447 70.4757 84.9121 82.1032 84.9121H92.4698C102.907 84.9121 107.179 88.4844 107.109 94.9986H116.776C116.776 81.6199 108.51 76.0163 92.4698 76.0163H82.1032C64.872 76.0163 57.2371 82.1103 57.2371 101.583C57.2371 121.055 64.872 127.149 82.1032 127.149H87.7768C99.4043 127.149 105.989 124.207 108.72 115.802L109.631 126.099H116.846V100.532H85.6054Z" fill="white"/>
<circle cx="88.5389" cy="102.968" r="80.5595" transform="rotate(84 88.5389 102.968)" stroke="#00E2FF" stroke-width="4.72721" stroke-linecap="round" stroke-linejoin="round" stroke-dasharray="5.12 14.58"/>
<circle cx="88.5382" cy="102.967" r="72.3823" transform="rotate(84 88.5382 102.967)" stroke="#00E2FF" stroke-opacity="0.9" stroke-width="3.15147" stroke-linecap="round" stroke-linejoin="round" stroke-dasharray="5.12 14.58"/>
<circle cx="88.5393" cy="102.968" r="64.9998" transform="rotate(84 88.5393 102.968)" stroke="#00E2FF" stroke-opacity="0.7" stroke-width="2.3636" stroke-linecap="round" stroke-linejoin="round" stroke-dasharray="5.12 14.58"/>
<circle cx="88.5387" cy="102.968" r="58.6477" transform="rotate(84 88.5387 102.968)" stroke="#00E2FF" stroke-opacity="0.5" stroke-width="1.57574" stroke-linecap="round" stroke-linejoin="round" stroke-dasharray="5.12 14.58"/>
<circle cx="37.6208" cy="164.715" r="19.8937" fill="#0ACAE3" stroke="#03383F" stroke-width="3.15147"/>
<circle cx="37.6209" cy="164.714" r="13.9847" fill="#0ACAE3" stroke="white" stroke-width="3.15147"/>
<path d="M253.038 106.56V119.037H292.68C290.991 134.114 282.932 139.443 265.776 139.443H246.54C224.964 139.443 218.465 131.775 218.465 108.509C218.465 85.2442 224.964 77.5757 246.54 77.5757H265.776C285.142 77.5757 293.07 84.2044 292.94 96.2919H310.876C310.876 71.467 295.54 61.0691 265.776 61.0691H246.54C214.566 61.0691 200.399 72.3768 200.399 108.509C200.399 144.642 214.566 155.95 246.54 155.95H257.067C278.643 155.95 290.861 150.491 295.929 134.894L297.619 154H311.006V106.56H253.038ZM416.982 116.048C428.29 113.708 433.489 107.47 433.489 93.4325C433.489 70.5572 424.001 63.0187 402.555 63.0187H336.789V154H355.505V124.236H398.916C411.393 124.236 415.942 126.576 415.942 136.324V154H434.789V135.544C434.789 123.326 429.2 117.867 416.982 116.048ZM398.006 79.1354C409.964 79.1354 414.643 82.7747 414.643 95.2521C414.643 106.3 410.224 109.029 396.317 109.029H355.505V79.1354H398.006ZM565.195 154L525.294 63.0187H493.19L451.989 154H471.485L478.373 138.533H538.941L545.569 154H565.195ZM505.668 77.4458H512.816L532.832 124.236H484.742L505.668 77.4458ZM623.746 141.133L591.253 63.0187H571.757L610.359 154H637.134L675.736 63.0187H656.24L623.746 141.133ZM716.912 154V63.0187H698.196V154H716.912ZM739.458 63.0187V77.9657H772.341V154H791.057V77.9657H823.941V63.0187H739.458ZM909.754 63.0187L880.121 110.979L850.487 63.0187H830.861L870.892 126.446V154.39H889.479V126.316L929.38 63.0187H909.754Z" fill="white"/>
<path d="M1020.46 90.7835H983.396V154.221H1020.46C1042.75 154.221 1052.63 146.336 1052.63 122.502C1052.63 98.6679 1042.75 90.7835 1020.46 90.7835ZM987.383 150.686V94.2273H1020.28C1040.04 94.2273 1048.65 101.205 1048.65 122.502C1048.65 143.799 1040.04 150.686 1020.28 150.686H987.383ZM1095.33 155.58C1113.91 155.58 1122.16 149.418 1122.16 128.393C1122.16 107.368 1113.91 101.115 1095.33 101.115H1090.17C1071.59 101.115 1063.34 107.368 1063.34 128.393C1063.34 149.418 1071.59 155.58 1090.17 155.58H1095.33ZM1090.71 152.318C1073.95 152.318 1066.97 146.699 1066.97 128.393C1066.97 110.087 1073.95 104.377 1090.71 104.377H1094.88C1111.56 104.377 1118.53 110.087 1118.53 128.393C1118.53 146.699 1111.56 152.318 1094.88 152.318H1090.71ZM1166.96 155.58C1183.91 155.58 1193.52 150.505 1193.52 134.193H1189.89C1189.89 147.786 1181.55 152.318 1166.51 152.318H1162.34C1145.58 152.318 1138.6 146.699 1138.6 128.393C1138.6 110.087 1145.58 104.377 1162.34 104.377H1166.51C1181.46 104.377 1189.89 108.999 1189.89 122.411H1193.52C1193.61 106.28 1183.82 101.115 1166.96 101.115H1161.8C1143.22 101.115 1134.97 107.368 1134.97 128.393C1134.97 149.418 1143.22 155.58 1161.8 155.58H1166.96ZM1257.72 128.393C1257.72 146.608 1246.39 152.318 1231.89 152.318H1230.08C1217.84 152.318 1211.05 146.608 1211.05 133.649V102.565H1207.33V133.649C1207.33 149.418 1215.67 155.58 1229.44 155.58H1231.07C1243.04 155.58 1253.91 151.593 1257.72 139.177V154.221H1261.43V102.474H1257.72V128.393ZM1350.62 101.115C1339.84 101.115 1328.96 105.465 1325.61 119.058C1324.43 106.008 1318.63 101.115 1305.85 101.115H1304.22C1293.71 101.115 1283.38 105.193 1279.66 117.608L1279.48 113.802V102.474H1276.04V154.221H1279.75V128.393C1279.75 109.815 1291.63 104.287 1303.04 104.287H1305.04C1317.73 104.287 1322.53 109.543 1322.53 124.586V154.221H1326.24V128.393C1326.24 109.815 1338.03 104.287 1349.54 104.287H1351.44C1364.22 104.287 1368.93 109.543 1368.93 124.586V154.221H1372.64V124.586C1372.64 107.368 1367.03 101.115 1352.25 101.115H1350.62ZM1444.86 127.215C1444.86 106.28 1435.17 101.115 1418.31 101.115H1413.15C1394.57 101.115 1386.32 107.368 1386.32 128.393C1386.32 149.418 1394.57 155.58 1413.15 155.58H1418.31C1435.26 155.58 1444.86 150.505 1444.86 134.555H1441.24C1441.24 147.877 1433.08 152.408 1418.13 152.408H1413.69C1397.29 152.408 1390.22 146.971 1389.95 129.48H1444.86V127.215ZM1389.95 127.215C1390.22 109.724 1397.29 104.287 1413.69 104.287H1417.86C1432.81 104.287 1441.24 108.908 1441.24 127.215H1389.95ZM1488.77 101.115C1476.53 101.115 1465.66 105.283 1462.12 118.424V102.474H1458.68V154.221H1462.39V128.393C1462.39 109.815 1474.08 104.287 1487.41 104.287H1489.76C1504.44 104.287 1509.07 109.543 1509.07 124.586V154.221H1512.78V124.586C1512.78 107.368 1507.16 101.115 1490.4 101.115H1488.77ZM1568.71 138.905C1568.71 147.061 1561.73 152.408 1552.58 152.408H1551.77C1542.79 152.408 1535.36 148.421 1535.36 136.64V105.374H1571.61V102.474H1535.36V90.7835H1531.65V102.474H1523.94V105.374H1531.65V136.64C1531.65 150.958 1540.53 155.58 1551.49 155.58H1552.67C1564 155.58 1572.34 149.236 1572.34 138.905H1568.71ZM1609.91 101.115C1594.42 101.115 1587.62 107.277 1587.62 118.696H1591.24C1591.24 109.543 1596.95 104.196 1609.82 104.196H1617.89C1632.57 104.196 1637.19 109.362 1637.19 124.043V125.946H1607.92C1594.14 125.946 1585.9 127.94 1585.9 138.815C1585.9 149.599 1594.32 155.489 1608.19 155.489H1610.82C1623.69 155.489 1633.84 150.868 1637.19 138.361V154.221H1640.91V123.952C1640.91 107.368 1635.29 101.115 1618.25 101.115H1609.91ZM1608.28 152.589C1596.5 152.589 1589.61 147.333 1589.61 138.815C1589.61 129.933 1596.41 128.121 1608.37 128.121H1637.19V128.483C1637.19 146.88 1625.86 152.589 1611.36 152.589H1608.28ZM1696.84 138.905C1696.84 147.061 1689.86 152.408 1680.7 152.408H1679.89C1670.92 152.408 1663.49 148.421 1663.49 136.64V105.374H1699.74V102.474H1663.49V90.7835H1659.77V102.474H1652.07V105.374H1659.77V136.64C1659.77 150.958 1668.65 155.58 1679.62 155.58H1680.8C1692.12 155.58 1700.46 149.236 1700.46 138.905H1696.84ZM1717.37 93.321C1719.55 93.321 1720.55 92.4148 1720.55 90.0585C1720.55 87.6117 1719.55 86.796 1717.37 86.796H1716.38C1714.11 86.796 1713.11 87.6117 1713.11 90.0585C1713.11 92.4148 1714.11 93.321 1716.38 93.321H1717.37ZM1718.64 154.221V102.474H1714.93V154.221H1718.64ZM1764.45 155.58C1783.03 155.58 1791.28 149.418 1791.28 128.393C1791.28 107.368 1783.03 101.115 1764.45 101.115H1759.29C1740.71 101.115 1732.46 107.368 1732.46 128.393C1732.46 149.418 1740.71 155.58 1759.29 155.58H1764.45ZM1759.83 152.318C1743.06 152.318 1736.09 146.699 1736.09 128.393C1736.09 110.087 1743.06 104.377 1759.83 104.377H1764C1780.67 104.377 1787.65 110.087 1787.65 128.393C1787.65 146.699 1780.67 152.318 1764 152.318H1759.83ZM1835.08 101.115C1822.85 101.115 1811.97 105.283 1808.44 118.424V102.474H1805V154.221H1808.71V128.393C1808.71 109.815 1820.4 104.287 1833.72 104.287H1836.08C1850.76 104.287 1855.38 109.543 1855.38 124.586V154.221H1859.1V124.586C1859.1 107.368 1853.48 101.115 1836.71 101.115H1835.08Z" fill="white"/>
</svg>
